<?xml version="1.0" encoding="utf-8"?><!-- Uploaded to: SVG Repo, www.svgrepo.com, Generator: SVG Repo Mixer Tools -->
<svg fill="#000000" width="800px" height="800px" viewBox="0 0 24 24" id="save" data-name="Flat Color" xmlns="http://www.w3.org/2000/svg" class="icon flat-color"><path id="primary" d="M20.71,6.29l-4-4A1,1,0,0,0,16,2H5A2,2,0,0,0,3,4V20a2,2,0,0,0,2,2H19a2,2,0,0,0,2-2V7A1,1,0,0,0,20.71,6.29Z" style="fill: rgb(0, 0, 0);"></path><path id="secondary" d="M17,15v7H7V15a1,1,0,0,1,1-1h8A1,1,0,0,1,17,15ZM11,7a1,1,0,0,0-1-1H8A1,1,0,0,0,8,8h2A1,1,0,0,0,11,7Z" style="fill: rgb(44, 169, 188);"></path></svg>